<svg height="800" width="800" xmlns="http://www.w3.org/2000/svg" viewBox="0 0 512.007 512.007" xml:space="preserve"><path style="fill:#a0bf7c" d="M204.805 499.207c-105.873 0-192-86.135-192-192s86.127-192 192-192 192 86.135 192 192-86.127 192-192 192z"/><path style="fill:#a9d0d3" d="M305.745 359.261c-13.133 0-23.287-4.873-30.191-14.473-5.931-8.303-8.934-19.166-8.934-32.324 0-13.269 3.021-24.166 8.986-32.393 6.827-9.549 16.99-14.43 30.14-14.43 13.039 0 23.194 4.881 30.182 14.498 6.007 8.235 9.071 19.115 9.071 32.324 0 13.09-3.038 23.953-9.037 32.282-6.997 9.635-17.152 14.516-30.217 14.516z"/><path style="fill:#c6d9b0" d="M406.746 191.982c-22.451 0-42.325-6.869-57.472-19.857l-11.802-10.129-.102.068-6.63-14.438c-5.316-11.571-7.356-24.567-5.897-37.564 6.468-58.308 57.66-67.354 102.818-75.324 18.441-3.26 35.601-6.289 48.154-12.484l14.438-7.117 3.678 15.676c8.474 36.122 9.489 90.999-15.565 126.763-15.769 22.51-40.533 34.406-71.62 34.406z"/><path style="fill:#788f5d" d="M295.77 138.119c-5.41-2.927-10.957-5.589-16.495-7.927l-9.643-4.079-13.286-3.695c-10.863-3.021-20.975-5.009-30.916-6.076l-14.626-1.562 3.567-14.276c3.524-14.089 12.74-27.298 27.46-45.363 8.073-9.89 15.659-19.183 19.772-28.083l6.366-13.773 12.501 8.593c24.132 16.563 40.917 39.953 44.902 62.549 3.055 17.34-1.408 34.185-13.261 50.074l-6.613 8.866-9.728-5.248z"/><path style="fill:#573a32" d="M126.853 344.131H82.3v-20.779h38.298c3.652 0 6.997-1.348 9.446-3.797 2.372-2.347 3.678-5.478 3.678-8.798 0-3.447-1.246-6.528-4.002-9.25-2.423-2.202-5.572-3.354-9.122-3.354H82.027l-.529-17.374h43.648c3.575 0 6.878-1.348 9.327-3.797 2.372-2.347 3.678-5.504 3.678-8.798 0-3.396-1.297-6.579-4.002-9.25-2.423-2.202-5.547-3.354-9.003-3.354H77.649c-6.596 0-12.177 2.423-16.179 7.023-3.371 3.925-5.146 8.977-5.146 14.575v70.673c0 5.547 1.724 10.402 5.171 14.473 2.748 3.174 7.799 6.972 16.154 6.972h49.203c4.779 0 7.825-2.099 9.353-3.678 2.449-2.347 3.772-5.521 3.772-8.926s-1.297-6.579-4.002-9.25c-1.673-1.51-4.625-3.311-9.122-3.311zM232.76 318.412c-1.024-.222-2.022-.324-3.021-.324l-4.429.529-2.074 1.178c-3.354 1.929-5.598 5.171-6.246 8.875-1.476 6.75-3.977 11.401-7.552 14.097-3.174 2.372-7.629 3.575-13.252 3.575-7.501 0-12.979-2.347-17.271-7.398-4.975-5.854-7.501-14.754-7.501-26.479 0-11.426 2.551-20.275 7.475-26.197 4.497-5.222 10.001-7.671 17.297-7.671 5.726 0 10.172 1.178 13.602 3.575 3.524 2.475 5.726 6.221 6.724 11.273.896 5.103 3.678 7.876 5.572 9.122 2.125 1.502 4.599 2.304 7.151 2.304l2.876-.324c3.251-.725 6.101-2.603 8.098-5.453 1.929-2.876 2.671-6.221 2.125-10.027-1.929-10.3-6.528-18.722-13.798-25.097-8.226-7.023-19.123-10.573-32.35-10.573-15.147 0-27.571 5.675-36.898 16.828-9.199 10.803-13.85 25.028-13.85 42.249 0 17.604 4.676 31.923 13.824 42.479 9.301 11.025 21.726 16.597 36.924 16.597 13.278 0 24.201-3.849 32.452-11.426 6.903-6.246 11.648-14.729 14.174-25.25 1.126-5.026-.375-8.678-1.698-10.65-1.877-3.013-4.779-5.019-8.354-5.812zM265.349 272.332c-7.902 10.65-11.904 24.149-11.904 40.124 0 15.974 4.002 29.449 11.947 40.021 9.549 12.646 23.125 19.046 40.354 19.046 17.101 0 30.626-6.4 40.175-19.004 8.149-10.598 12.254-24.073 12.254-40.073 0-15.974-4.096-29.5-12.228-40.226-9.6-12.527-23.1-18.85-40.201-18.85-17.204.009-30.78 6.366-40.397 18.962zm60.219 15.326c4.403 6.025 6.622 14.379 6.622 24.798 0 10.351-2.253 18.722-6.622 24.798-4.548 6.272-10.871 9.199-19.823 9.199-9.028 0-15.326-2.927-19.797-9.148-4.326-6.05-6.528-14.404-6.528-24.849 0-10.522 2.202-18.876 6.554-24.875 4.446-6.221 10.752-9.148 19.772-9.148 8.951 0 15.248 2.927 19.822 9.225z"/><path style="fill:#000000" d="M500.681 8.387c-1.562-4.25-5.291-7.373-9.839-8.201l-2.159-.179c-3.772 0-7.322 1.621-9.754 4.446-8.286 9.677-31.223 13.722-53.478 17.647-31.403 5.555-70.613 12.979-93.961 40.226-12.51-27.895-38.528-50.458-61.423-61.124-4.122-1.929-8.951-1.51-12.698 1.067-3.678 2.577-5.828 6.955-5.47 11.52.623 8.004-9.856 20.855-19.985 33.28-12.578 15.403-27.605 34.219-31.292 55.543C89.468 104.865.005 195.506.005 307.207c0 113.109 91.691 204.8 204.8 204.8s204.8-91.691 204.8-204.8c0-38.801-10.991-74.948-29.73-105.873 8.499 2.21 17.468 3.447 26.871 3.447 35.934 0 63.565-13.397 82.099-39.876 32.973-47.044 24.764-120.977 11.836-156.518zM251.746 63.239c8.474-10.385 16.674-20.42 21.47-30.805 18.534 12.723 35.78 32.879 39.543 54.221 2.466 13.995-1.399 27.443-10.914 40.192-5.709-3.081-11.58-5.914-17.596-8.448 2.193-10.701 3.601-22.622 1.894-37.06-.828-7.023-7.194-12.041-14.217-11.204-7.006.862-12.032 7.219-11.204 14.217 1.135 9.591.418 17.929-.956 25.745-10.692-2.978-21.666-5.257-32.99-6.468 3.048-12.187 12.333-24.885 24.97-40.39zm132.259 243.968c0 98.807-80.393 179.2-179.2 179.2s-179.2-80.393-179.2-179.2 80.393-179.2 179.2-179.2 179.2 80.393 179.2 179.2zm83.882-156.97c-13.449 19.2-34.014 28.954-61.141 28.954-19.328 0-36.463-5.897-49.135-16.777 9.66-7.296 20.659-13.278 32.777-17.749l2.697-1.05c22.059-7.697 42.684-7.501 44.297-7.125l2.748.299c6.025 0 11.162-4.096 12.501-10.001 1.263-5.7-1.502-11.375-6.409-14.046 12.015-10.846 21.513-23.45 28.373-37.649 1.476-3.072 1.673-6.554.546-9.779-1.126-3.226-3.447-5.828-6.528-7.296-6.11-2.901-14.123-.154-17.084 5.948-10.197 21.129-27.221 37.299-51.797 49.126 1.51-10.675-.154-21.274-4.975-30.925-3.046-6.153-11.187-8.678-17.135-5.751-3.072 1.527-5.359 4.147-6.451 7.398-1.101 3.277-.836 6.75.691 9.779 7.697 15.428-2.022 29.5-5.786 34.074-8.422 4.198-16.358 9.097-23.697 14.626-4.361-9.498-6.025-19.977-4.813-30.797 5.41-48.802 47.616-56.252 92.339-64.154 19.098-3.379 37.325-6.579 51.575-13.602 8.602 36.693 7.903 85.794-13.593 116.497z"/></svg>