<svg width="16" height="16" fill="none" xmlns="http://www.w3.org/2000/svg"><path d="M14.667 8A6.669 6.669 0 0 0 8 1.333 6.67 6.67 0 0 0 1.333 8 6.669 6.669 0 0 0 8 14.666" stroke="#173D33" stroke-linecap="round" stroke-linejoin="round"/><path d="M5.334 2H6a18.949 18.949 0 0 0 0 12h-.666M10 2c.647 1.947.973 3.973.973 6" stroke="#173D33" stroke-linecap="round" stroke-linejoin="round"/><path d="M2 10.667V10c1.947.647 3.973.973 6 .973M2 6c3.893-1.3 8.107-1.3 12 0" stroke="#173D33" stroke-linecap="round" stroke-linejoin="round"/><path d="m12.806 10.493-2.36 2.36a.821.821 0 0 0-.2.394l-.126.9c-.047.326.18.553.507.506l.9-.126a.793.793 0 0 0 .393-.2l2.36-2.36c.407-.407.6-.88 0-1.48-.593-.594-1.067-.4-1.473.006z" stroke="#173D33" stroke-miterlimit="10" stroke-linecap="round" stroke-linejoin="round"/><path d="M12.466 10.833c.2.72.76 1.28 1.48 1.48" stroke="#173D33" stroke-miterlimit="10" stroke-linecap="round" stroke-linejoin="round"/></svg>